<?xml version="1.0" encoding="UTF-8" standalone="no"?>
<svg
   xmlns:dc="http://purl.org/dc/elements/1.1/"
   xmlns:cc="http://creativecommons.org/ns#"
   xmlns:rdf="http://www.w3.org/1999/02/22-rdf-syntax-ns#"
   xmlns:svg="http://www.w3.org/2000/svg"
   xmlns="http://www.w3.org/2000/svg"
   xmlns:xlink="http://www.w3.org/1999/xlink"
   version="1.1"
   id="svg2"
   height="40.2271"
   width="25.1">
  <metadata
     id="metadata74">
    <rdf:RDF>
      <cc:Work
         rdf:about="">
        <dc:format>image/svg+xml</dc:format>
        <dc:type
           rdf:resource="http://purl.org/dc/dcmitype/StillImage" />
        <dc:title />
      </cc:Work>
    </rdf:RDF>
  </metadata>
  <defs
     id="defs4">
    <linearGradient
       id="b">
      <stop
         id="stop7"
         stop-color="#2e6c97"
         offset="0" />
      <stop
         id="stop9"
         stop-color="#3883b7"
         offset="1" />
    </linearGradient>
    <linearGradient
       id="a">
      <stop
         id="stop12"
         stop-color="#126fc6"
         offset="0" />
      <stop
         id="stop14"
         stop-color="#4c9cd1"
         offset="1" />
    </linearGradient>
    <linearGradient
       y2="503.72"
       x2="445.30099"
       y1="541.28601"
       x1="445.30099"
       gradientTransform="translate(-432.796,-503.349)"
       gradientUnits="userSpaceOnUse"
       id="c"
       xlink:href="#a" />
    <linearGradient
       y2="503.72101"
       x2="351.74799"
       y1="522.77399"
       x1="351.74799"
       gradientTransform="translate(-341.216,-503.35)"
       gradientUnits="userSpaceOnUse"
       id="d"
       xlink:href="#b" />
  </defs>
  <rect
     style="fill:#ffffff"
     id="rect44"
     width="12.625"
     height="14.5"
     x="6.3289919"
     y="4.5130124" />
  <path
     style="fill:url(#c);stroke:url(#d);stroke-width:1.10000002;stroke-linecap:round"
     id="path46"
     d="M 12.594,0.55000001 C 6.021,0.55000001 0.55000001,6.241 0.55000001,12.416 c 0,2.778 1.56399999,6.308 2.69399999,8.746 l 9.306,17.872 9.262,-17.872 c 1.13,-2.438 2.738,-5.791 2.738,-8.746 0,-6.175 -5.383,-11.86599999 -11.956,-11.86599999 z m 0,7.15499999 c 2.584,0.017 4.679,2.122 4.679,4.71 0,2.588 -2.095,4.663 -4.679,4.679 -2.584,-0.017 -4.679,-2.09 -4.679,-4.679 0,-2.588 2.095,-4.693 4.679,-4.71 z" />
  <path
     style="fill:none;stroke:#ffffff;stroke-width:1.10000002;stroke-linecap:round;stroke-opacity:0.122"
     id="path70"
     d="m 12.581,1.657 c -5.944,0 -10.938,5.219 -10.938,10.75 0,2.359 1.443,5.832 2.563,8.25 l 0.031,0.031 8.313,15.969 8.25,-15.969 0.031,-0.031 c 1.135,-2.448 2.625,-5.706 2.625,-8.25 0,-5.538 -4.931,-10.75 -10.875,-10.75 z m 0,4.969 c 3.168,0.021 5.781,2.601 5.781,5.781 0,3.18 -2.613,5.761 -5.781,5.781 -3.168,-0.02 -5.75,-2.61 -5.75,-5.781 0,-3.172 2.582,-5.761 5.75,-5.781 z" />
</svg>
